PathFileType	4	(X/Y/Z)	C:\Git\research_data\torsion_deformities_healthy_kinematics\simulations\P03\pre\Static01\marker_experimental_HJC.trc
DataRate	CameraRate	NumFrames	NumMarkers	Units	OrigDataRate	OrigDataStartFrame	OrigNumFrames
150	150	7	38	mm	150	94	150
Frame#	Time	C7			T10			CLAV			STRN			RBAK			SACR			LASI			RASI			LT1			LT2			LT3			LS1			LS2			LS3			LHEE			LTOE			RT1			RT2			RT3			RS1			RS2			RS3			RHEE			RTOE			LKNE			LKNM			LANK			LANM			RKNM			RKNE			RANM			RANK			LKJC			RKJC			LAJC			RAJC			LHJC			RHJC		
		X1	Y1	Z1	X2	Y2	Z2	X3	Y3	Z3	X4	Y4	Z4	X5	Y5	Z5	X6	Y6	Z6	X7	Y7	Z7	X8	Y8	Z8	X9	Y9	Z9	X10	Y10	Z10	X11	Y11	Z11	X12	Y12	Z12	X13	Y13	Z13	X14	Y14	Z14	X15	Y15	Z15	X16	Y16	Z16	X17	Y17	Z17	X18	Y18	Z18	X19	Y19	Z19	X20	Y20	Z20	X21	Y21	Z21	X22	Y22	Z22	X23	Y23	Z23	X24	Y24	Z24	X25	Y25	Z25	X26	Y26	Z26	X27	Y27	Z27	X28	Y28	Z28	X29	Y29	Z29	X30	Y30	Z30	X31	Y31	Z31	X32	Y32	Z32	X33	Y33	Z33	X34	Y34	Z34	X35	Y35	Z35	X36	Y36	Z36	X37	Y37	Z37	X38	Y38	Z38	

94	0.620000	-967.029541	1273.809448	-446.772675	-914.763794	1095.165527	-446.312988	-1097.116089	1209.985718	-431.214233	-1128.684814	1156.532959	-426.560089	-934.721863	1176.609497	-544.861084	-913.976868	874.361816	-428.853760	-1071.462646	870.658997	-278.903351	-1120.952393	876.580566	-522.447144	-1127.554443	586.356567	-242.105820	-1078.963623	474.583221	-229.375229	-1202.611694	531.962646	-275.065369	-1032.577393	217.245422	-282.086304	-950.090637	148.828766	-342.581482	-1061.256104	131.696030	-253.704987	-973.743591	41.856277	-367.853302	-1082.808350	41.213821	-261.777893	-1131.641846	606.194092	-593.262207	-1056.419312	507.045837	-586.282471	-1197.744385	533.959412	-583.985229	-1090.186401	266.072021	-587.690430	-982.517395	216.915939	-562.574036	-1117.517090	175.665009	-582.826782	-981.840454	44.968204	-500.141357	-1123.302246	41.770458	-570.564270	-1147.172852	432.698181	-266.539642	-1164.084595	421.674286	-365.907654	-993.972351	49.503544	-304.582184	-1044.751099	47.625729	-356.578674	-1166.858521	423.676086	-467.124725	-1166.278809	439.137146	-569.744080	-1062.789917	52.777470	-490.698059	-1019.109253	47.589195	-552.291321	-1155.628662	427.186218	-316.223663	-1166.568604	431.406616	-518.434387	-1019.361755	48.564636	-330.580444	-1040.949585	50.183334	-521.494690	-1025.325274	786.318403	-326.014693	-1060.895080	790.574418	-501.057123	
95	0.626667	-967.062378	1273.798462	-446.805878	-914.775146	1095.158569	-446.223541	-1097.148071	1209.963989	-431.296112	-1128.700439	1156.507446	-426.651184	-934.688843	1176.553101	-544.816711	-913.976196	874.345947	-428.781067	-1071.431641	870.650208	-278.791290	-1120.978882	876.583374	-522.329468	-1127.599365	586.335815	-242.099792	-1079.025757	474.566559	-229.361008	-1202.643677	531.947021	-275.095459	-1032.615356	217.233017	-282.075928	-950.088135	148.828400	-342.511292	-1061.305908	131.686768	-253.716354	-973.734802	41.856705	-367.844574	-1082.817139	41.208870	-261.789398	-1131.663086	606.171143	-593.153870	-1056.451782	507.016541	-586.132202	-1197.770874	533.940247	-583.900085	-1090.282959	266.084259	-587.622192	-982.561462	216.922180	-562.554260	-1117.552002	175.664963	-582.776855	-981.840759	44.969513	-500.139374	-1123.310303	41.776543	-570.551270	-1147.227905	432.682526	-266.557343	-1164.067139	421.684479	-365.965485	-993.975464	49.508827	-304.576202	-1044.749756	47.617336	-356.587830	-1166.898315	423.648193	-467.025818	-1166.308594	439.124542	-569.645813	-1062.790039	52.774818	-490.681976	-1019.110474	47.597305	-552.282043	-1155.647461	427.183502	-316.261414	-1166.603394	431.386383	-518.335815	-1019.362549	48.563084	-330.582031	-1040.950317	50.186062	-521.481995	-1025.310685	786.305784	-325.917355	-1060.921742	790.570125	-500.955391	
96	0.633333	-967.104370	1273.788818	-446.834351	-914.790100	1095.151855	-446.126495	-1097.179810	1209.953003	-431.371063	-1128.715088	1156.494873	-426.732086	-934.651367	1176.500488	-544.758728	-913.992737	874.336548	-428.717468	-1071.403687	870.650085	-278.691681	-1121.010620	876.585022	-522.219971	-1127.634277	586.319031	-242.101028	-1079.072632	474.554688	-229.360809	-1202.664307	531.932312	-275.131897	-1032.649048	217.221222	-282.064911	-950.081787	148.823547	-342.432617	-1061.360107	131.679184	-253.730270	-973.724365	41.855576	-367.833862	-1082.830322	41.197742	-261.806702	-1131.698486	606.143677	-593.044861	-1056.495972	506.986328	-585.981201	-1197.813843	533.918274	-583.808105	-1090.401245	266.094238	-587.551514	-982.613831	216.924896	-562.550598	-1117.591553	175.661880	-582.721924	-981.840332	44.971489	-500.136230	-1123.320068	41.782101	-570.537231	-1147.322998	432.695312	-266.547424	-1164.031372	421.693573	-366.033173	-993.975159	49.520145	-304.563843	-1044.747192	47.608173	-356.596893	-1166.938599	423.614197	-466.921722	-1166.348999	439.107269	-569.547241	-1062.790649	52.772583	-490.666687	-1019.113892	47.606396	-552.272522	-1155.677246	427.194458	-316.290283	-1166.643799	431.360718	-518.234497	-1019.361145	48.564159	-330.580353	-1040.952271	50.189487	-521.469604	-1025.300883	786.302271	-325.828679	-1060.954816	790.567881	-500.859478	
97	0.640000	-967.150879	1273.781738	-446.856964	-914.806885	1095.145508	-446.020020	-1097.208496	1209.951660	-431.441315	-1128.730591	1156.490601	-426.806885	-934.598389	1176.452881	-544.684082	-914.024536	874.335022	-428.662994	-1071.383301	870.659485	-278.606873	-1121.045166	876.582458	-522.122742	-1127.657715	586.305847	-242.108414	-1079.101929	474.547211	-229.373688	-1202.674438	531.918274	-275.169189	-1032.677002	217.211594	-282.055511	-950.073486	148.815399	-342.358582	-1061.412842	131.673935	-253.746140	-973.715027	41.853210	-367.824005	-1082.848389	41.181705	-261.829590	-1131.749146	606.111572	-592.937256	-1056.556519	506.955414	-585.836121	-1197.877441	533.892090	-583.709351	-1090.533569	266.100525	-587.480957	-982.670532	216.925858	-562.557251	-1117.636108	175.656082	-582.662842	-981.839233	44.973919	-500.131927	-1123.330444	41.787159	-570.521973	-1147.435425	432.726807	-266.521088	-1163.991333	421.700653	-366.104919	-993.970825	49.536171	-304.546936	-1044.744141	47.597935	-356.605591	-1166.977539	423.577972	-466.810974	-1166.406982	439.083679	-569.448425	-1062.792603	52.770077	-490.652893	-1019.119690	47.616173	-552.263367	-1155.713379	427.213715	-316.312988	-1166.692261	431.330841	-518.129700	-1019.357422	48.567055	-330.576263	-1040.956177	50.193123	-521.458130	-1025.297132	786.308760	-325.748738	-1060.990563	790.565774	-500.770696	
98	0.646667	-967.193481	1273.778564	-446.870972	-914.824036	1095.139160	-445.903168	-1097.231567	1209.957275	-431.509125	-1128.747925	1156.491333	-426.878448	-934.523743	1176.411255	-544.592529	-914.066040	874.343628	-428.617249	-1071.374146	870.677917	-278.536682	-1121.081665	876.573608	-522.040222	-1127.669556	586.295227	-242.120438	-1079.111328	474.542816	-229.398743	-1202.675903	531.905396	-275.202454	-1032.699097	217.205383	-282.050232	-950.065430	148.805389	-342.299866	-1061.459106	131.671295	-253.764404	-973.709106	41.850025	-367.817871	-1082.869141	41.165688	-261.855560	-1131.814087	606.075745	-592.832947	-1056.637207	506.923187	-585.704468	-1197.962280	533.860901	-583.604736	-1090.670044	266.102142	-587.413086	-982.726135	216.928726	-562.564209	-1117.685425	175.647690	-582.600464	-981.837708	44.976559	-500.126617	-1123.340942	41.792061	-570.505310	-1147.511353	432.751129	-266.511414	-1163.951538	421.705933	-366.170135	-993.964722	49.552414	-304.530457	-1044.740723	47.586472	-356.613831	-1167.016968	423.541718	-466.695892	-1166.486938	439.053101	-569.347961	-1062.796387	52.766541	-490.640503	-1019.127625	47.626102	-552.254761	-1155.731445	427.228546	-316.340759	-1166.751953	431.297424	-518.021912	-1019.352661	48.569443	-330.572144	-1040.962036	50.196320	-521.447632	-1025.298971	786.325063	-325.676790	-1061.025257	790.562473	-500.690093	
99	0.653333	-967.224426	1273.779419	-446.873199	-914.841858	1095.132446	-445.776764	-1097.248657	1209.967773	-431.575378	-1128.766968	1156.496582	-426.946259	-934.429016	1176.374390	-544.488037	-914.111389	874.363831	-428.579620	-1071.377441	870.703674	-278.479706	-1121.119995	876.557495	-521.973267	-1127.671143	586.286865	-242.134964	-1079.097900	474.539307	-229.436386	-1202.671021	531.894714	-275.228516	-1032.716064	217.203110	-282.051147	-950.059082	148.795044	-342.261902	-1061.495972	131.671188	-253.785400	-973.707703	41.846386	-367.817200	-1082.888428	41.156174	-261.880676	-1131.891724	606.037659	-592.733887	-1056.738892	506.888000	-585.594421	-1198.064331	533.825806	-583.495483	-1090.801025	266.098938	-587.349792	-982.774841	216.938034	-562.560852	-1117.738647	175.636658	-582.536316	-981.835876	44.979160	-500.120422	-1123.351074	41.797394	-570.487366	-1147.522217	432.754150	-266.535675	-1163.911621	421.712280	-366.222778	-993.961243	49.563046	-304.521149	-1044.737549	47.573864	-356.621704	-1167.061890	423.506622	-466.583038	-1166.588623	439.015930	-569.244629	-1062.802002	52.761303	-490.628845	-1019.137024	47.635525	-552.247009	-1155.716919	427.233215	-316.379211	-1166.825317	431.261261	-517.913818	-1019.349365	48.568455	-330.571411	-1040.969482	50.198414	-521.437927	-1025.304640	786.349834	-325.612217	-1061.056150	790.557156	-500.618565	
100	0.660000	-967.239868	1273.783936	-446.861511	-914.861877	1095.124634	-445.643585	-1097.261230	1209.982422	-431.638977	-1128.785522	1156.508545	-427.007965	-934.322815	1176.340332	-544.376892	-914.156860	874.395447	-428.549133	-1071.392456	870.734680	-278.434753	-1121.161011	876.534851	-521.921448	-1127.665405	586.281128	-242.149719	-1079.058960	474.533020	-229.487946	-1202.661499	531.886780	-275.246490	-1032.728638	217.204422	-282.058868	-950.054993	148.785339	-342.244812	-1061.522705	131.672943	-253.808182	-973.710815	41.842495	-367.822113	-1082.902466	41.157055	-261.901794	-1131.979736	605.999329	-592.641785	-1056.858154	506.848053	-585.512146	-1198.177002	533.789368	-583.383606	-1090.919922	266.091492	-587.292175	-982.813599	216.956818	-562.540405	-1117.794189	175.623383	-582.472351	-981.834045	44.981510	-500.113617	-1123.360596	41.803749	-570.468628	-1147.479004	432.739655	-266.587219	-1163.871704	421.723022	-366.264801	-993.964600	49.564465	-304.523529	-1044.734985	47.560291	-356.629211	-1167.116089	423.472900	-466.479340	-1166.706299	438.974182	-569.138855	-1062.808960	52.754082	-490.617096	-1019.146851	47.643764	-552.240479	-1155.675415	427.231354	-316.425995	-1166.911255	431.223541	-517.809082	-1019.349792	48.562378	-330.576355	-1040.977905	50.198925	-521.428772	-1025.312747	786.381267	-325.555448	-1061.082978	790.550033	-500.557020	
